{
  "accessors": [
    {
      "bufferView": 2,
      "componentType": 5126,
      "count": 65532,
      "max": [
        1.169232964515686,
        -5.8332061767578125,
        0.4501830041408539
      ],
      "min": [
        -1.107862949371338,
        -6.709749221801758,
        -0.7964419722557068
      ],
      "type": "VEC3"
    },
    {
      "bufferView": 2,
      "byteOffset": 786384,
      "componentType": 5126,
      "count": 65532,
      "max": [
        0.9999970197677612,
        0.9999107718467712,
        0.9975297451019287
      ],
      "min": [
        -0.9998576641082764,
        -0.9968234300613403,
        -0.9997604489326477
      ],
      "type": "VEC3"
    },
    {
      "bufferView": 1,
      "componentType": 5126,
      "count": 65532,
      "max": [
        0.987650990486145,
        0.8024290204048157
      ],
      "min": [
        0.003671000013127923,
        0.003790999995544553
      ],
      "type": "VEC2"
    },
    {
      "bufferView": 0,
      "componentType": 5125,
      "count": 324930,
      "type": "SCALAR"
    },
    {
      "bufferView": 2,
      "byteOffset": 1572768,
      "componentType": 5126,
      "count": 65532,
      "max": [
        1.169232964515686,
        -5.735101222991943,
        0.7552700042724609
      ],
      "min": [
        -1.0869319438934326,
        -6.742015838623047,
        -0.725944995880127
      ],
      "type": "VEC3"
    },
    {
      "bufferView": 2,
      "byteOffset": 2359152,
      "componentType": 5126,
      "count": 65532,
      "max": [
        0.9999970197677612,
        0.9998471140861511,
        0.9999997615814209
      ],
      "min": [
        -0.9997228980064392,
        -0.9999935030937195,
        -0.9999549984931946
      ],
      "type": "VEC3"
    },
    {
      "bufferView": 1,
      "byteOffset": 524256,
      "componentType": 5126,
      "count": 65532,
      "max": [
        0.9884210228919983,
        0.9660059809684753
      ],
      "min": [
        0.019067000597715378,
        0.010130999609827995
      ],
      "type": "VEC2"
    },
    {
      "bufferView": 0,
      "byteOffset": 1299720,
      "componentType": 5125,
      "count": 311817,
      "type": "SCALAR"
    },
    {
      "bufferView": 2,
      "byteOffset": 3145536,
      "componentType": 5126,
      "count": 65534,
      "max": [
        1.1464049816131592,
        -5.763187885284424,
        0.7277640104293823
      ],
      "min": [
        -1.0277539491653442,
        -6.727015018463135,
        -0.7906360030174255
      ],
      "type": "VEC3"
    },
    {
      "bufferView": 2,
      "byteOffset": 3931944,
      "componentType": 5126,
      "count": 65534,
      "max": [
        0.9999867677688599,
        0.9999541640281677,
        0.9999132752418518
      ],
      "min": [
        -0.9995630383491516,
        -0.999710738658905,
        -0.9991255402565002
      ],
      "type": "VEC3"
    },
    {
      "bufferView": 1,
      "byteOffset": 1048512,
      "componentType": 5126,
      "count": 65534,
      "max": [
        0.9880560040473938,
        0.9892470240592957
      ],
      "min": [
        0.041815999895334244,
        0.007977000437676907
      ],
      "type": "VEC2"
    },
    {
      "bufferView": 0,
      "byteOffset": 2546988,
      "componentType": 5125,
      "count": 307074,
      "type": "SCALAR"
    },
    {
      "bufferView": 2,
      "byteOffset": 4718352,
      "componentType": 5126,
      "count": 65532,
      "max": [
        1.0837420225143433,
        -5.812222957611084,
        0.7283759713172913
      ],
      "min": [
        -0.9676650166511536,
        -6.746671199798584,
        -0.8204330205917358
      ],
      "type": "VEC3"
    },
    {
      "bufferView": 2,
      "byteOffset": 5504736,
      "componentType": 5126,
      "count": 65532,
      "max": [
        0.9999867677688599,
        0.9998865723609924,
        0.999890148639679
      ],
      "min": [
        -0.9988570213317871,
        -0.9999455809593201,
        -0.9992919564247131
      ],
      "type": "VEC3"
    },
    {
      "bufferView": 1,
      "byteOffset": 1572784,
      "componentType": 5126,
      "count": 65532,
      "max": [
        0.9819689989089966,
        0.988306999206543
      ],
      "min": [
        0.06164899840950966,
        0.00405499991029501
      ],
      "type": "VEC2"
    },
    {
      "bufferView": 0,
      "byteOffset": 3775284,
      "componentType": 5125,
      "count": 294858,
      "type": "SCALAR"
    },
    {
      "bufferView": 2,
      "byteOffset": 6291120,
      "componentType": 5126,
      "count": 65532,
      "max": [
        1.0021400451660156,
        -5.898250102996826,
        0.7844269871711731
      ],
      "min": [
        -0.8978480100631714,
        -6.7478837966918945,
        -0.8330919742584229
      ],
      "type": "VEC3"
    },
    {
      "bufferView": 2,
      "byteOffset": 7077504,
      "componentType": 5126,
      "count": 65532,
      "max": [
        0.9994414448738098,
        0.9999924898147583,
        0.9996903538703918
      ],
      "min": [
        -0.9998132586479187,
        -0.9999977946281433,
        -0.9999974370002747
      ],
      "type": "VEC3"
    },
    {
      "bufferView": 1,
      "byteOffset": 2097040,
      "componentType": 5126,
      "count": 65532,
      "max": [
        0.9755499958992004,
        0.9937809705734253
      ],
      "min": [
        0.057854000478982925,
        0.004230000078678131
      ],
      "type": "VEC2"
    },
    {
      "bufferView": 0,
      "byteOffset": 4954716,
      "componentType": 5125,
      "count": 309396,
      "type": "SCALAR"
    },
    {
      "bufferView": 2,
      "byteOffset": 7863888,
      "componentType": 5126,
      "count": 65532,
      "max": [
        0.9737589955329895,
        -5.9080119132995605,
        0.7841169834136963
      ],
      "min": [
        -0.8673679828643799,
        -6.732194900512695,
        -0.8330919742584229
      ],
      "type": "VEC3"
    },
    {
      "bufferView": 2,
      "byteOffset": 8650272,
      "componentType": 5126,
      "count": 65532,
      "max": [
        0.9999529719352722,
        0.9999997019767761,
        0.9999721050262451
      ],
      "min": [
        -0.9997884035110474,
        -0.9999575018882751,
        -0.9997604489326477
      ],
      "type": "VEC3"
    },
    {
      "bufferView": 1,
      "byteOffset": 2621296,
      "componentType": 5126,
      "count": 65532,
      "max": [
        0.9743139743804932,
        0.9957110285758972
      ],
      "min": [
        0.018136000260710716,
        0.0037990000564604998
      ],
      "type": "VEC2"
    },
    {
      "bufferView": 0,
      "byteOffset": 6192300,
      "componentType": 5125,
      "count": 311121,
      "type": "SCALAR"
    },
    {
      "bufferView": 2,
      "byteOffset": 9436656,
      "componentType": 5126,
      "count": 65532,
      "max": [
        0.8641560077667236,
        -6.13316011428833,
        0.5860710144042969
      ],
      "min": [
        -0.7945939898490906,
        -6.741151809692383,
        -0.6333659887313843
      ],
      "type": "VEC3"
    },
    {
      "bufferView": 2,
      "byteOffset": 10223040,
      "componentType": 5126,
      "count": 65532,
      "max": [
        0.9970623850822449,
        0.9999541640281677,
        0.9999846816062927
      ],
      "min": [
        -0.9994427561759949,
        -0.9999217987060547,
        -0.9982277154922485
      ],
      "type": "VEC3"
    },
    {
      "bufferView": 1,
      "byteOffset": 3145552,
      "componentType": 5126,
      "count": 65532,
      "max": [
        0.969202995300293,
        0.9917160272598267
      ],
      "min": [
        0.015657000243663788,
        0.07423999905586243
      ],
      "type": "VEC2"
    },
    {
      "bufferView": 0,
      "byteOffset": 7436784,
      "componentType": 5125,
      "count": 282831,
      "type": "SCALAR"
    },
    {
      "bufferView": 2,
      "byteOffset": 11009424,
      "componentType": 5126,
      "count": 65532,
      "max": [
        0.9332169890403748,
        -5.969845771789551,
        0.7234349846839905
      ],
      "min": [
        -0.8134080171585083,
        -6.747546195983887,
        -0.7726140022277832
      ],
      "type": "VEC3"
    },
    {
      "bufferView": 2,
      "byteOffset": 11795808,
      "componentType": 5126,
      "count": 65532,
      "max": [
        0.9995958209037781,
        0.9999834895133972,
        0.9999721050262451
      ],
      "min": [
        -0.9998461604118347,
        -0.9999720454216003,
        -0.9999009966850281
      ],
      "type": "VEC3"
    },
    {
      "bufferView": 1,
      "byteOffset": 3669808,
      "componentType": 5126,
      "count": 65532,
      "max": [
        0.9689409732818604,
        0.9960389733314514
      ],
      "min": [
        0.019840000197291374,
        0.019937999546527863
      ],
      "type": "VEC2"
    },
    {
      "bufferView": 0,
      "byteOffset": 8568108,
      "componentType": 5125,
      "count": 223035,
      "type": "SCALAR"
    },
    {
      "bufferView": 2,
      "byteOffset": 12582192,
      "componentType": 5126,
      "count": 10803,
      "max": [
        0.9448339939117432,
        -5.943603992462158,
        0.7708510160446167
      ],
      "min": [
        -0.8416560292243958,
        -6.67844295501709,
        -0.8302599787712097
      ],
      "type": "VEC3"
    },
    {
      "bufferView": 2,
      "byteOffset": 12711828,
      "componentType": 5126,
      "count": 10803,
      "max": [
        0.9990180730819702,
        0.9999662637710571,
        0.9998956322669983
      ],
      "min": [
        -0.9998132586479187,
        -0.9931439161300659,
        -0.9845018982887268
      ],
      "type": "VEC3"
    },
    {
      "bufferView": 1,
      "byteOffset": 4194064,
      "componentType": 5126,
      "count": 10803,
      "max": [
        0.9718310236930847,
        0.9906889796257019
      ],
      "min": [
        0.05997199937701225,
        0.011334000155329704
      ],
      "type": "VEC2"
    },
    {
      "bufferView": 0,
      "byteOffset": 9460248,
      "componentType": 5125,
      "count": 27222,
      "type": "SCALAR"
    }
  ],
  "asset": {
    "extras": {
      "author": "RLA Archaeology (https://sketchfab.com/rla-archaeology)",
      "license": "CC-BY-4.0 (http://creativecommons.org/licenses/by/4.0/)",
      "source": "https://sketchfab.com/3d-models/catawba-earthenware-bowl-2499p1485-1-4388ed8960c241079a8ae51195d01036",
      "title": "Catawba Earthenware Bowl (2499p1485-1)"
    },
    "generator": "Sketchfab-13.96.0",
    "version": "2.0"
  },
  "bufferViews": [
    {
      "buffer": 0,
      "byteLength": 9569136,
      "name": "floatBufferViews",
      "target": 34963
    },
    {
      "buffer": 0,
      "byteLength": 4280488,
      "byteOffset": 9569136,
      "byteStride": 8,
      "name": "floatBufferViews",
      "target": 34962
    },
    {
      "buffer": 0,
      "byteLength": 12841464,
      "byteOffset": 13849624,
      "byteStride": 12,
      "name": "floatBufferViews",
      "target": 34962
    }
  ],
  "buffers": [
    {
      "byteLength": 26691088,
      "uri": "scene.bin"
    }
  ],
  "images": [
    {
      "uri": "textures/material_0_baseColor.jpeg"
    }
  ],
  "materials": [
    {
      "doubleSided": true,
      "name": "material_0",
      "pbrMetallicRoughness": {
        "baseColorTexture": {
          "index": 0
        },
        "metallicFactor": 0.0,
        "roughnessFactor": 0.6
      }
    }
  ],
  "meshes": [
    {
      "name": "Object_0",
      "primitives": [
        {
          "attributes": {
            "NORMAL": 1,
            "POSITION": 0,
            "TEXCOORD_0": 2
          },
          "indices": 3,
          "material": 0,
          "mode": 4
        }
      ]
    },
    {
      "name": "Object_1",
      "primitives": [
        {
          "attributes": {
            "NORMAL": 5,
            "POSITION": 4,
            "TEXCOORD_0": 6
          },
          "indices": 7,
          "material": 0,
          "mode": 4
        }
      ]
    },
    {
      "name": "Object_2",
      "primitives": [
        {
          "attributes": {
            "NORMAL": 9,
            "POSITION": 8,
            "TEXCOORD_0": 10
          },
          "indices": 11,
          "material": 0,
          "mode": 4
        }
      ]
    },
    {
      "name": "Object_3",
      "primitives": [
        {
          "attributes": {
            "NORMAL": 13,
            "POSITION": 12,
            "TEXCOORD_0": 14
          },
          "indices": 15,
          "material": 0,
          "mode": 4
        }
      ]
    },
    {
      "name": "Object_4",
      "primitives": [
        {
          "attributes": {
            "NORMAL": 17,
            "POSITION": 16,
            "TEXCOORD_0": 18
          },
          "indices": 19,
          "material": 0,
          "mode": 4
        }
      ]
    },
    {
      "name": "Object_5",
      "primitives": [
        {
          "attributes": {
            "NORMAL": 21,
            "POSITION": 20,
            "TEXCOORD_0": 22
          },
          "indices": 23,
          "material": 0,
          "mode": 4
        }
      ]
    },
    {
      "name": "Object_6",
      "primitives": [
        {
          "attributes": {
            "NORMAL": 25,
            "POSITION": 24,
            "TEXCOORD_0": 26
          },
          "indices": 27,
          "material": 0,
          "mode": 4
        }
      ]
    },
    {
      "name": "Object_7",
      "primitives": [
        {
          "attributes": {
            "NORMAL": 29,
            "POSITION": 28,
            "TEXCOORD_0": 30
          },
          "indices": 31,
          "material": 0,
          "mode": 4
        }
      ]
    },
    {
      "name": "Object_8",
      "primitives": [
        {
          "attributes": {
            "NORMAL": 33,
            "POSITION": 32,
            "TEXCOORD_0": 34
          },
          "indices": 35,
          "material": 0,
          "mode": 4
        }
      ]
    }
  ],
  "nodes": [
    {
      "children": [
        1
      ],
      "matrix": [
        0.9996039271354675,
        -0.02814263105392456,
        -6.637091167891295e-16,
        0.0,
        0.019898006692528725,
        0.7067614197731017,
        0.7071720957756044,
        0.0,
        -0.019901683554053307,
        -0.7068920135498048,
        0.7070414423942565,
        0.0,
        0.0,
        0.0,
        0.0,
        1.0
      ],
      "name": "Sketchfab_model"
    },
    {
      "children": [
        2,
        3,
        4,
        5,
        6,
        7,
        8,
        9,
        10
      ],
      "name": "SoC634 Bowl (2499p1485-1).obj.cleaner.gles"
    },
    {
      "mesh": 0,
      "name": "Object_2"
    },
    {
      "mesh": 1,
      "name": "Object_3"
    },
    {
      "mesh": 2,
      "name": "Object_4"
    },
    {
      "mesh": 3,
      "name": "Object_5"
    },
    {
      "mesh": 4,
      "name": "Object_6"
    },
    {
      "mesh": 5,
      "name": "Object_7"
    },
    {
      "mesh": 6,
      "name": "Object_8"
    },
    {
      "mesh": 7,
      "name": "Object_9"
    },
    {
      "mesh": 8,
      "name": "Object_10"
    }
  ],
  "samplers": [
    {
      "magFilter": 9729,
      "minFilter": 9987,
      "wrapS": 10497,
      "wrapT": 10497
    }
  ],
  "scene": 0,
  "scenes": [
    {
      "name": "Sketchfab_Scene",
      "nodes": [
        0
      ]
    }
  ],
  "textures": [
    {
      "sampler": 0,
      "source": 0
    }
  ]
}
